<svg width="161" height="112" viewBox="0 0 161 112" fill="none" xmlns="http://www.w3.org/2000/svg">
<path d="M103.543 40.2197C104.394 41.474 105.613 42.4388 107.036 42.9833C108.46 43.5277 110.018 43.6254 111.499 43.263L123.781 40.2233L121.992 33.11L109.71 36.1497L104.603 28.5707C103.511 26.9521 101.818 25.8264 99.8913 25.4393L85.6463 22.616C84.0527 22.2994 82.3981 22.511 80.9381 23.2181C79.4781 23.9252 78.2938 25.0885 77.5682 26.5283L71.4272 38.687L78.0534 41.9687L84.1944 29.8063L91.4799 31.251L72.6421 62.3333H56.2192V69.6667H72.6421C75.2274 69.6667 77.6608 68.3027 78.9942 66.1063L86.0982 54.3877L105.243 58.179L111.97 78.1587L118.992 75.8377L112.27 55.8617C111.855 54.6353 111.121 53.5387 110.141 52.6826C109.162 51.8264 107.972 51.2409 106.692 50.985L95.4356 48.7593L101.999 37.928L103.543 40.2197V40.2197Z" fill="#68D391"/>
<rect x="45.1077" y="22.8148" width="26.3385" height="3.25926" rx="1.62963" fill="#68D391"/>
<rect x="27" y="44" width="26.3385" height="3.25926" rx="1.62963" fill="#68D391"/>
<rect x="36.877" y="32.5926" width="26.3385" height="3.25926" rx="1.62963" fill="#68D391"/>
<path d="M118.685 17.9259C118.685 23.0451 114.491 27.2037 109.308 27.2037C104.124 27.2037 99.9308 23.0451 99.9308 17.9259C99.9308 12.8067 104.124 8.64813 109.308 8.64813C114.491 8.64813 118.685 12.8067 118.685 17.9259Z" stroke="#68D391"/>
<path d="M108.173 16.1928C108.116 16.2841 108.054 16.3525 107.989 16.3982C107.928 16.4438 107.847 16.4666 107.747 16.4666C107.659 16.4666 107.563 16.44 107.459 16.3868C107.359 16.3297 107.244 16.267 107.113 16.1985C106.987 16.1301 106.841 16.0692 106.675 16.016C106.51 15.959 106.322 15.9305 106.111 15.9305C105.746 15.9305 105.473 16.0084 105.293 16.1643C105.116 16.3164 105.028 16.5236 105.028 16.786C105.028 16.9533 105.081 17.0921 105.189 17.2024C105.297 17.3127 105.437 17.4077 105.61 17.4876C105.786 17.5674 105.986 17.6416 106.209 17.71C106.435 17.7747 106.666 17.8488 106.9 17.9325C107.134 18.0123 107.363 18.1074 107.586 18.2176C107.812 18.3279 108.012 18.4686 108.185 18.6397C108.362 18.8108 108.504 19.02 108.611 19.2671C108.719 19.5105 108.773 19.8052 108.773 20.1512C108.773 20.5352 108.705 20.8946 108.571 21.2292C108.437 21.5638 108.241 21.8566 107.983 22.1076C107.73 22.3547 107.415 22.5506 107.038 22.695C106.666 22.8357 106.241 22.9061 105.765 22.9061C105.504 22.9061 105.237 22.8795 104.964 22.8262C104.695 22.773 104.434 22.6988 104.181 22.6038C103.927 22.5049 103.689 22.3889 103.466 22.2559C103.244 22.1228 103.05 21.9745 102.884 21.811L103.461 20.9098C103.507 20.8451 103.566 20.7919 103.639 20.7501C103.716 20.7045 103.799 20.6816 103.887 20.6816C104.002 20.6816 104.117 20.7178 104.233 20.79C104.352 20.8623 104.484 20.9421 104.63 21.0296C104.78 21.117 104.951 21.1969 105.143 21.2691C105.335 21.3414 105.562 21.3775 105.823 21.3775C106.176 21.3775 106.451 21.3014 106.647 21.1493C106.843 20.9934 106.941 20.7482 106.941 20.4136C106.941 20.2196 106.887 20.0618 106.779 19.9402C106.672 19.8185 106.53 19.7177 106.353 19.6379C106.18 19.558 105.982 19.4877 105.759 19.4268C105.537 19.366 105.308 19.2994 105.074 19.2272C104.839 19.1511 104.611 19.0599 104.388 18.9534C104.165 18.8431 103.966 18.7006 103.789 18.5256C103.616 18.3469 103.476 18.1264 103.368 17.864C103.261 17.5978 103.207 17.2708 103.207 16.883C103.207 16.5712 103.27 16.267 103.397 15.9704C103.524 15.6738 103.71 15.4095 103.956 15.1776C104.202 14.9456 104.503 14.7612 104.861 14.6243C105.218 14.4836 105.627 14.4133 106.088 14.4133C106.345 14.4133 106.595 14.4342 106.837 14.476C107.083 14.514 107.315 14.573 107.534 14.6528C107.753 14.7289 107.956 14.822 108.145 14.9323C108.337 15.0388 108.508 15.1605 108.657 15.2973L108.173 16.1928Z" fill="#68D391"/>
<path d="M114.554 16.1928C114.496 16.2841 114.435 16.3525 114.37 16.3982C114.308 16.4438 114.227 16.4666 114.128 16.4666C114.039 16.4666 113.943 16.44 113.84 16.3868C113.74 16.3297 113.624 16.267 113.494 16.1985C113.367 16.1301 113.221 16.0692 113.056 16.016C112.891 15.959 112.703 15.9305 112.491 15.9305C112.126 15.9305 111.854 16.0084 111.673 16.1643C111.496 16.3164 111.408 16.5236 111.408 16.786C111.408 16.9533 111.462 17.0921 111.569 17.2024C111.677 17.3127 111.817 17.4077 111.99 17.4876C112.167 17.5674 112.366 17.6416 112.589 17.71C112.816 17.7747 113.046 17.8488 113.281 17.9325C113.515 18.0123 113.743 18.1074 113.966 18.2176C114.193 18.3279 114.393 18.4686 114.565 18.6397C114.742 18.8108 114.884 19.02 114.992 19.2671C115.099 19.5105 115.153 19.8052 115.153 20.1512C115.153 20.5352 115.086 20.8946 114.951 21.2292C114.817 21.5638 114.621 21.8566 114.364 22.1076C114.11 22.3547 113.795 22.5506 113.419 22.695C113.046 22.8357 112.622 22.9061 112.146 22.9061C111.884 22.9061 111.617 22.8795 111.345 22.8262C111.076 22.773 110.815 22.6988 110.561 22.6038C110.308 22.5049 110.07 22.3889 109.847 22.2559C109.624 22.1228 109.43 21.9745 109.265 21.811L109.841 20.9098C109.887 20.8451 109.947 20.7919 110.02 20.7501C110.096 20.7045 110.179 20.6816 110.267 20.6816C110.383 20.6816 110.498 20.7178 110.613 20.79C110.732 20.8623 110.865 20.9421 111.011 21.0296C111.16 21.117 111.331 21.1969 111.523 21.2691C111.715 21.3414 111.942 21.3775 112.203 21.3775C112.557 21.3775 112.831 21.3014 113.027 21.1493C113.223 20.9934 113.321 20.7482 113.321 20.4136C113.321 20.2196 113.267 20.0618 113.16 19.9402C113.052 19.8185 112.91 19.7177 112.733 19.6379C112.56 19.558 112.363 19.4877 112.14 19.4268C111.917 19.366 111.689 19.2994 111.454 19.2272C111.22 19.1511 110.991 19.0599 110.769 18.9534C110.546 18.8431 110.346 18.7006 110.169 18.5256C109.997 18.3469 109.856 18.1264 109.749 17.864C109.641 17.5978 109.587 17.2708 109.587 16.883C109.587 16.5712 109.651 16.267 109.778 15.9704C109.904 15.6738 110.091 15.4095 110.336 15.1776C110.582 14.9456 110.884 14.7612 111.241 14.6243C111.598 14.4836 112.007 14.4133 112.468 14.4133C112.726 14.4133 112.975 14.4342 113.217 14.476C113.463 14.514 113.695 14.573 113.914 14.6528C114.133 14.7289 114.337 14.822 114.525 14.9323C114.717 15.0388 114.888 15.1605 115.038 15.2973L114.554 16.1928Z" fill="#68D391"/>
<path d="M6.62 85.6C7.84667 85.6 8.92667 85.7933 9.86 86.18C10.8067 86.5533 11.6267 87.1067 12.32 87.84L10.66 90.06C10.0867 89.46 9.46667 89.0133 8.8 88.72C8.14667 88.4133 7.4 88.26 6.56 88.26C6.06667 88.26 5.66667 88.3133 5.36 88.42C5.05333 88.5267 4.83333 88.6733 4.7 88.86C4.56667 89.0467 4.5 89.26 4.5 89.5C4.5 89.78 4.62667 90.02 4.88 90.22C5.14667 90.4067 5.57333 90.5667 6.16 90.7L8.38 91.2C9.7 91.5067 10.6667 91.9533 11.28 92.54C11.8933 93.1267 12.2 93.9067 12.2 94.88C12.2 95.8133 11.96 96.6067 11.48 97.26C11 97.9 10.34 98.3867 9.5 98.72C8.66 99.04 7.7 99.2 6.62 99.2C5.74 99.2 4.9 99.1067 4.1 98.92C3.3 98.72 2.58 98.44 1.94 98.08C1.3 97.72 0.76 97.3067 0.32 96.84L1.98 94.54C2.31333 94.9267 2.72 95.2733 3.2 95.58C3.69333 95.8733 4.22667 96.1067 4.8 96.28C5.38667 96.4533 5.98 96.54 6.58 96.54C7.04667 96.54 7.43333 96.4933 7.74 96.4C8.06 96.3067 8.29333 96.1667 8.44 95.98C8.58667 95.7933 8.66 95.5733 8.66 95.32C8.66 95.04 8.56 94.8067 8.36 94.62C8.16 94.42 7.78 94.2533 7.22 94.12L4.78 93.58C4.03333 93.4067 3.36667 93.18 2.78 92.9C2.20667 92.6067 1.75333 92.22 1.42 91.74C1.08667 91.2467 0.92 90.6333 0.92 89.9C0.92 89.0733 1.14667 88.34 1.6 87.7C2.05333 87.0467 2.70667 86.5333 3.56 86.16C4.41333 85.7867 5.43333 85.6 6.62 85.6ZM22.2925 103.42C21.8258 103.42 21.3858 103.333 20.9725 103.16C20.5725 103 20.2458 102.753 19.9925 102.42C19.7525 102.1 19.6325 101.693 19.6325 101.2C19.6325 100.427 19.9258 99.82 20.5125 99.38C21.0992 98.94 21.8925 98.62 22.8925 98.42L24.1125 98.88C23.5125 99.1067 23.0525 99.32 22.7325 99.52C22.4258 99.72 22.2125 99.9133 22.0925 100.1C21.9725 100.3 21.9125 100.493 21.9125 100.68C21.9125 100.933 21.9992 101.133 22.1725 101.28C22.3592 101.44 22.5992 101.52 22.8925 101.52C23.0392 101.52 23.1992 101.507 23.3725 101.48C23.5458 101.453 23.6858 101.4 23.7925 101.32L24.1325 103.04C23.9058 103.173 23.6325 103.267 23.3125 103.32C23.0058 103.387 22.6658 103.42 22.2925 103.42ZM19.6125 92.68C19.6125 92.1867 19.4858 91.8067 19.2325 91.54C18.9925 91.2733 18.6392 91.14 18.1725 91.14C17.7325 91.14 17.3592 91.2533 17.0525 91.48C16.7458 91.6933 16.5392 92.0733 16.4325 92.62L13.5925 91.98C13.7525 91.0067 14.2325 90.2333 15.0325 89.66C15.8458 89.0867 16.9658 88.8 18.3925 88.8C19.3658 88.8 20.1925 88.9467 20.8725 89.24C21.5658 89.5333 22.0925 89.9533 22.4525 90.5C22.8125 91.0333 22.9925 91.6867 22.9925 92.46V96.26C22.9925 96.78 23.2458 97.04 23.7525 97.04C23.9525 97.04 24.1192 97.0133 24.2525 96.96L24.1125 98.88C23.7125 99.08 23.2192 99.18 22.6325 99.18C22.0992 99.18 21.6258 99.1 21.2125 98.94C20.7992 98.7667 20.4725 98.5133 20.2325 98.18C20.0058 97.8333 19.8925 97.3933 19.8925 96.86V96.66L20.3125 96.7C20.2325 97.2067 20.0192 97.6467 19.6725 98.02C19.3392 98.3933 18.9192 98.6867 18.4125 98.9C17.9058 99.1 17.3592 99.2 16.7725 99.2C16.1192 99.2 15.5458 99.1 15.0525 98.9C14.5592 98.6867 14.1725 98.38 13.8925 97.98C13.6258 97.5667 13.4925 97.08 13.4925 96.52C13.4925 95.7733 13.7325 95.1667 14.2125 94.7C14.6925 94.2333 15.3725 93.9133 16.2525 93.74L19.9325 93L19.9125 94.5L17.9925 94.92C17.5525 95.0133 17.2325 95.1533 17.0325 95.34C16.8325 95.5267 16.7325 95.7733 16.7325 96.08C16.7325 96.3733 16.8392 96.6133 17.0525 96.8C17.2658 96.9733 17.5658 97.06 17.9525 97.06C18.1658 97.06 18.3725 97.0333 18.5725 96.98C18.7725 96.9133 18.9525 96.8133 19.1125 96.68C19.2725 96.5467 19.3925 96.3867 19.4725 96.2C19.5658 96 19.6125 95.7733 19.6125 95.52V92.68ZM29.2164 99.2C28.3897 99.2 27.6631 99 27.0364 98.6C26.4231 98.1867 25.9431 97.5933 25.5964 96.82C25.2631 96.0467 25.0964 95.12 25.0964 94.04C25.0964 92.92 25.2697 91.9733 25.6164 91.2C25.9764 90.4267 26.4697 89.8333 27.0964 89.42C27.7364 89.0067 28.4697 88.8 29.2964 88.8C30.2031 88.8 30.9297 89.08 31.4764 89.64C32.0364 90.1867 32.3964 90.8867 32.5564 91.74L32.2364 92.16V84.76H35.6364V99H32.5964L32.3764 95.6L32.7764 95.9C32.6964 96.5667 32.4897 97.1467 32.1564 97.64C31.8364 98.1333 31.4231 98.52 30.9164 98.8C30.4231 99.0667 29.8564 99.2 29.2164 99.2ZM30.3964 96.7C30.7831 96.7 31.1097 96.6 31.3764 96.4C31.6564 96.1867 31.8697 95.8733 32.0164 95.46C32.1631 95.0467 32.2364 94.54 32.2364 93.94C32.2364 93.38 32.1631 92.9067 32.0164 92.52C31.8831 92.12 31.6764 91.82 31.3964 91.62C31.1297 91.4067 30.8031 91.3 30.4164 91.3C29.8297 91.3 29.3631 91.52 29.0164 91.96C28.6831 92.3867 28.5164 93.0667 28.5164 94C28.5164 94.9333 28.6831 95.62 29.0164 96.06C29.3497 96.4867 29.8097 96.7 30.3964 96.7ZM42.9555 99.2C41.8488 99.2 40.8888 98.9933 40.0755 98.58C39.2755 98.1667 38.6555 97.5733 38.2155 96.8C37.7755 96.0267 37.5555 95.0933 37.5555 94C37.5555 92.9067 37.7755 91.9733 38.2155 91.2C38.6555 90.4267 39.2688 89.8333 40.0555 89.42C40.8555 89.0067 41.7688 88.8 42.7955 88.8C43.8488 88.8 44.7421 89.0067 45.4755 89.42C46.2221 89.82 46.7888 90.38 47.1755 91.1C47.5621 91.8067 47.7555 92.62 47.7555 93.54C47.7555 93.78 47.7488 94.02 47.7355 94.26C47.7221 94.5 47.7021 94.7 47.6755 94.86H39.7555V93.04H46.1755L44.5555 93.66C44.5555 92.86 44.4088 92.2467 44.1155 91.82C43.8355 91.3933 43.3955 91.18 42.7955 91.18C42.3688 91.18 42.0021 91.28 41.6955 91.48C41.4021 91.68 41.1755 91.9933 41.0155 92.42C40.8688 92.8467 40.7955 93.3933 40.7955 94.06C40.7955 94.7133 40.8821 95.2467 41.0555 95.66C41.2288 96.06 41.4755 96.3533 41.7955 96.54C42.1155 96.7133 42.5021 96.8 42.9555 96.8C43.4621 96.8 43.8621 96.7 44.1555 96.5C44.4621 96.3 44.6888 96.02 44.8355 95.66L47.5555 96.56C47.3688 97.1333 47.0421 97.62 46.5755 98.02C46.1221 98.4067 45.5755 98.7 44.9355 98.9C44.3088 99.1 43.6488 99.2 42.9555 99.2ZM54.3975 88.8C55.4108 88.8 56.2508 88.9467 56.9175 89.24C57.5975 89.52 58.1242 89.9 58.4975 90.38C58.8842 90.8467 59.1242 91.3533 59.2175 91.9L56.0775 92.94C55.9842 92.3667 55.8108 91.94 55.5575 91.66C55.3175 91.3667 54.9642 91.22 54.4975 91.22C54.0708 91.22 53.7108 91.32 53.4175 91.52C53.1375 91.7067 52.9242 92.0133 52.7775 92.44C52.6308 92.8533 52.5575 93.3867 52.5575 94.04C52.5575 94.6933 52.6375 95.2267 52.7975 95.64C52.9575 96.04 53.1842 96.3333 53.4775 96.52C53.7708 96.6933 54.1175 96.78 54.5175 96.78C54.8508 96.78 55.1242 96.72 55.3375 96.6C55.5642 96.4667 55.7508 96.28 55.8975 96.04C56.0442 95.8 56.1375 95.5067 56.1775 95.16L59.2375 96.14C59.1442 96.7267 58.8908 97.2533 58.4775 97.72C58.0775 98.1733 57.5442 98.5333 56.8775 98.8C56.2108 99.0667 55.4308 99.2 54.5375 99.2C53.4442 99.2 52.4908 99 51.6775 98.6C50.8642 98.1867 50.2375 97.5933 49.7975 96.82C49.3575 96.0333 49.1375 95.0933 49.1375 94C49.1375 92.9067 49.3575 91.9733 49.7975 91.2C50.2375 90.4133 50.8508 89.82 51.6375 89.42C52.4375 89.0067 53.3575 88.8 54.3975 88.8ZM71.9852 89L67.1852 94.12L66.5452 94.3L63.6852 97.5L63.6652 94.02L68.2052 89H71.9852ZM64.4052 84.76V99H61.0052V84.76H64.4052ZM67.7052 92L72.2052 99H68.4452L65.4852 94L67.7052 92ZM75.1466 87.84C74.4532 87.84 73.9466 87.7133 73.6266 87.46C73.3199 87.1933 73.1666 86.78 73.1666 86.22C73.1666 85.6467 73.3199 85.2333 73.6266 84.98C73.9466 84.7133 74.4532 84.58 75.1466 84.58C75.8266 84.58 76.3266 84.7133 76.6466 84.98C76.9666 85.2333 77.1266 85.6467 77.1266 86.22C77.1266 86.78 76.9666 87.1933 76.6466 87.46C76.3266 87.7133 75.8266 87.84 75.1466 87.84ZM76.8466 89V99H73.4466V89H76.8466Z" fill="#FFFDFD"/>
<path d="M84.6669 85.6C85.8935 85.6 86.9735 85.7933 87.9069 86.18C88.8535 86.5533 89.6735 87.1067 90.3669 87.84L88.7069 90.06C88.1335 89.46 87.5135 89.0133 86.8469 88.72C86.1935 88.4133 85.4469 88.26 84.6069 88.26C84.1135 88.26 83.7135 88.3133 83.4069 88.42C83.1002 88.5267 82.8802 88.6733 82.7469 88.86C82.6135 89.0467 82.5469 89.26 82.5469 89.5C82.5469 89.78 82.6735 90.02 82.9269 90.22C83.1935 90.4067 83.6202 90.5667 84.2069 90.7L86.4269 91.2C87.7469 91.5067 88.7135 91.9533 89.3269 92.54C89.9402 93.1267 90.2469 93.9067 90.2469 94.88C90.2469 95.8133 90.0069 96.6067 89.5269 97.26C89.0469 97.9 88.3869 98.3867 87.5469 98.72C86.7069 99.04 85.7469 99.2 84.6669 99.2C83.7869 99.2 82.9469 99.1067 82.1469 98.92C81.3469 98.72 80.6269 98.44 79.9869 98.08C79.3469 97.72 78.8069 97.3067 78.3669 96.84L80.0269 94.54C80.3602 94.9267 80.7669 95.2733 81.2469 95.58C81.7402 95.8733 82.2735 96.1067 82.8469 96.28C83.4335 96.4533 84.0269 96.54 84.6269 96.54C85.0935 96.54 85.4802 96.4933 85.7869 96.4C86.1069 96.3067 86.3402 96.1667 86.4869 95.98C86.6335 95.7933 86.7069 95.5733 86.7069 95.32C86.7069 95.04 86.6069 94.8067 86.4069 94.62C86.2069 94.42 85.8269 94.2533 85.2669 94.12L82.8269 93.58C82.0802 93.4067 81.4135 93.18 80.8269 92.9C80.2535 92.6067 79.8002 92.22 79.4669 91.74C79.1335 91.2467 78.9669 90.6333 78.9669 89.9C78.9669 89.0733 79.1935 88.34 79.6469 87.7C80.1002 87.0467 80.7535 86.5333 81.6069 86.16C82.4602 85.7867 83.4802 85.6 84.6669 85.6ZM92.1184 103.2V89H95.1784L95.3584 92.62L94.9584 92.2C95.0518 91.5333 95.2584 90.9467 95.5784 90.44C95.8984 89.9333 96.3118 89.5333 96.8184 89.24C97.3251 88.9467 97.9051 88.8 98.5584 88.8C99.3851 88.8 100.105 89.0067 100.718 89.42C101.332 89.82 101.805 90.4067 102.138 91.18C102.485 91.94 102.658 92.8667 102.658 93.96C102.658 95.0533 102.485 95.9933 102.138 96.78C101.792 97.5667 101.305 98.1667 100.678 98.58C100.065 98.9933 99.3451 99.2 98.5184 99.2C97.6118 99.2 96.8784 98.9333 96.3184 98.4C95.7584 97.8533 95.3851 97.1667 95.1984 96.34L95.5184 95.86V103.2H92.1184ZM97.3584 96.7C97.9451 96.7 98.4051 96.4867 98.7384 96.06C99.0718 95.62 99.2384 94.9333 99.2384 94C99.2384 93.0667 99.0718 92.3867 98.7384 91.96C98.4184 91.52 97.9651 91.3 97.3784 91.3C97.0051 91.3 96.6784 91.4067 96.3984 91.62C96.1184 91.82 95.8984 92.12 95.7384 92.52C95.5918 92.92 95.5184 93.4133 95.5184 94C95.5184 94.56 95.5851 95.0467 95.7184 95.46C95.8651 95.86 96.0784 96.1667 96.3584 96.38C96.6384 96.5933 96.9718 96.7 97.3584 96.7ZM104.658 99V89H107.658L107.798 91.16C108.051 90.4133 108.424 89.8333 108.918 89.42C109.424 89.0067 110.064 88.8 110.838 88.8C111.091 88.8 111.304 88.82 111.478 88.86C111.664 88.9 111.811 88.9533 111.918 89.02L111.578 91.82C111.444 91.7667 111.271 91.7267 111.058 91.7C110.858 91.66 110.611 91.64 110.318 91.64C109.918 91.64 109.544 91.7267 109.198 91.9C108.851 92.0733 108.571 92.3333 108.358 92.68C108.158 93.0133 108.058 93.44 108.058 93.96V99H104.658ZM114.951 87.84C114.258 87.84 113.751 87.7133 113.431 87.46C113.125 87.1933 112.971 86.78 112.971 86.22C112.971 85.6467 113.125 85.2333 113.431 84.98C113.751 84.7133 114.258 84.58 114.951 84.58C115.631 84.58 116.131 84.7133 116.451 84.98C116.771 85.2333 116.931 85.6467 116.931 86.22C116.931 86.78 116.771 87.1933 116.451 87.46C116.131 87.7133 115.631 87.84 114.951 87.84ZM116.651 89V99H113.251V89H116.651ZM119.072 99V89H122.112L122.292 92.44L121.912 92.06C122.045 91.34 122.278 90.74 122.612 90.26C122.958 89.78 123.385 89.42 123.892 89.18C124.412 88.9267 124.992 88.8 125.632 88.8C126.325 88.8 126.925 88.9333 127.432 89.2C127.952 89.4667 128.358 89.86 128.652 90.38C128.945 90.9 129.092 91.5533 129.092 92.34V99H125.692V93.24C125.692 92.5467 125.558 92.0667 125.292 91.8C125.025 91.5333 124.685 91.4 124.272 91.4C123.952 91.4 123.652 91.48 123.372 91.64C123.092 91.7867 122.872 92.0267 122.712 92.36C122.552 92.6933 122.472 93.14 122.472 93.7V99H119.072ZM135.595 85.82V95.44C135.595 95.92 135.709 96.2667 135.935 96.48C136.175 96.68 136.502 96.78 136.915 96.78C137.235 96.78 137.509 96.7467 137.735 96.68C137.975 96.6 138.189 96.4867 138.375 96.34L138.735 98.44C138.402 98.68 137.982 98.8667 137.475 99C136.969 99.1333 136.449 99.2 135.915 99.2C135.155 99.2 134.495 99.0933 133.935 98.88C133.389 98.6667 132.962 98.3267 132.655 97.86C132.362 97.3933 132.209 96.7733 132.195 96V86.76L135.595 85.82ZM138.575 89V91.42H130.475V89H138.575ZM145.026 99.2C143.919 99.2 142.959 98.9933 142.146 98.58C141.346 98.1667 140.726 97.5733 140.286 96.8C139.846 96.0267 139.626 95.0933 139.626 94C139.626 92.9067 139.846 91.9733 140.286 91.2C140.726 90.4267 141.339 89.8333 142.126 89.42C142.926 89.0067 143.839 88.8 144.866 88.8C145.919 88.8 146.812 89.0067 147.546 89.42C148.292 89.82 148.859 90.38 149.246 91.1C149.632 91.8067 149.826 92.62 149.826 93.54C149.826 93.78 149.819 94.02 149.806 94.26C149.792 94.5 149.772 94.7 149.746 94.86H141.826V93.04H148.246L146.626 93.66C146.626 92.86 146.479 92.2467 146.186 91.82C145.906 91.3933 145.466 91.18 144.866 91.18C144.439 91.18 144.072 91.28 143.766 91.48C143.472 91.68 143.246 91.9933 143.086 92.42C142.939 92.8467 142.866 93.3933 142.866 94.06C142.866 94.7133 142.952 95.2467 143.126 95.66C143.299 96.06 143.546 96.3533 143.866 96.54C144.186 96.7133 144.572 96.8 145.026 96.8C145.532 96.8 145.932 96.7 146.226 96.5C146.532 96.3 146.759 96.02 146.906 95.66L149.626 96.56C149.439 97.1333 149.112 97.62 148.646 98.02C148.192 98.4067 147.646 98.7 147.006 98.9C146.379 99.1 145.719 99.2 145.026 99.2ZM151.728 99V89H154.728L154.868 91.16C155.121 90.4133 155.494 89.8333 155.988 89.42C156.494 89.0067 157.134 88.8 157.908 88.8C158.161 88.8 158.374 88.82 158.548 88.86C158.734 88.9 158.881 88.9533 158.988 89.02L158.648 91.82C158.514 91.7667 158.341 91.7267 158.128 91.7C157.928 91.66 157.681 91.64 157.388 91.64C156.988 91.64 156.614 91.7267 156.268 91.9C155.921 92.0733 155.641 92.3333 155.428 92.68C155.228 93.0133 155.128 93.44 155.128 93.96V99H151.728Z" fill="#68D391"/>
</svg>
