<svg width="20" height="20" viewBox="0 0 20 20" fill="none" xmlns="http://www.w3.org/2000/svg">
<path d="M19.0038 9.77778C19.0038 14.7566 14.9247 18.8056 9.87692 18.8056C4.82911 18.8056 0.75 14.7566 0.75 9.77778C0.75 4.79899 4.82911 0.75 9.87692 0.75C14.9247 0.75 19.0038 4.79899 19.0038 9.77778Z" stroke="#68D391" stroke-width="1.5"/>
<path d="M8.74271 8.04469C8.68509 8.13595 8.62363 8.2044 8.55834 8.25003C8.49688 8.29566 8.41622 8.31847 8.31635 8.31847C8.22801 8.31847 8.13198 8.29185 8.02827 8.23862C7.92841 8.18158 7.81318 8.11884 7.68258 8.0504C7.55583 7.98195 7.40987 7.92111 7.24471 7.86788C7.07954 7.81084 6.89133 7.78232 6.68007 7.78232C6.31518 7.78232 6.04246 7.86027 5.86194 8.01617C5.68525 8.16827 5.59691 8.37551 5.59691 8.63788C5.59691 8.80519 5.65068 8.94398 5.75823 9.05425C5.86578 9.16452 6.00597 9.25958 6.17882 9.33943C6.35551 9.41928 6.55524 9.49343 6.77802 9.56188C7.00464 9.62652 7.2351 9.70067 7.46941 9.78432C7.70371 9.86417 7.93225 9.95924 8.15503 10.0695C8.38165 10.1798 8.58138 10.3205 8.75423 10.4916C8.93092 10.6627 9.07303 10.8718 9.18058 11.119C9.28813 11.3623 9.34191 11.657 9.34191 12.0031C9.34191 12.3871 9.27469 12.7464 9.14025 13.0811C9.00582 13.4157 8.80992 13.7085 8.55257 13.9594C8.29907 14.2066 7.9841 14.4024 7.60768 14.5469C7.2351 14.6876 6.81067 14.758 6.33438 14.758C6.07319 14.758 5.80624 14.7313 5.53353 14.6781C5.26466 14.6249 5.00347 14.5507 4.74996 14.4557C4.49645 14.3568 4.25831 14.2408 4.03553 14.1077C3.81275 13.9746 3.61878 13.8263 3.45361 13.6628L4.02977 12.7617C4.07586 12.697 4.1354 12.6438 4.20837 12.602C4.2852 12.5563 4.36778 12.5335 4.45612 12.5335C4.57135 12.5335 4.68658 12.5696 4.80181 12.6419C4.92089 12.7141 5.0534 12.794 5.19936 12.8814C5.34916 12.9689 5.52009 13.0487 5.71214 13.121C5.90419 13.1932 6.13081 13.2294 6.392 13.2294C6.74537 13.2294 7.02001 13.1533 7.2159 13.0012C7.41179 12.8453 7.50974 12.6001 7.50974 12.2654C7.50974 12.0715 7.45596 11.9137 7.34841 11.792C7.24086 11.6703 7.09875 11.5696 6.92206 11.4897C6.74921 11.4099 6.5514 11.3395 6.32862 11.2787C6.10584 11.2179 5.8773 11.1513 5.643 11.0791C5.4087 11.003 5.18015 10.9118 4.95737 10.8053C4.7346 10.695 4.53486 10.5524 4.35817 10.3775C4.18533 10.1988 4.04513 9.97825 3.93758 9.71588C3.83003 9.4497 3.77626 9.12269 3.77626 8.73484C3.77626 8.42304 3.83964 8.11884 3.96639 7.82225C4.09314 7.52565 4.27943 7.26138 4.52526 7.02943C4.77109 6.79748 5.07261 6.61306 5.42982 6.47617C5.78704 6.33548 6.19611 6.26514 6.65703 6.26514C6.91438 6.26514 7.16404 6.28605 7.40603 6.32788C7.65185 6.3659 7.88424 6.42484 8.10317 6.50469C8.32211 6.58074 8.52569 6.6739 8.7139 6.78417C8.90595 6.89064 9.07687 7.01232 9.22668 7.14921L8.74271 8.04469Z" fill="#68D391"/>
<path d="M15.1232 8.04469C15.0655 8.13595 15.0041 8.2044 14.9388 8.25003C14.8773 8.29566 14.7967 8.31847 14.6968 8.31847C14.6085 8.31847 14.5124 8.29185 14.4087 8.23862C14.3089 8.18158 14.1936 8.11884 14.063 8.0504C13.9363 7.98195 13.7903 7.92111 13.6252 7.86788C13.46 7.81084 13.2718 7.78232 13.0605 7.78232C12.6956 7.78232 12.4229 7.86027 12.2424 8.01617C12.0657 8.16827 11.9774 8.37551 11.9774 8.63788C11.9774 8.80519 12.0311 8.94398 12.1387 9.05425C12.2462 9.16452 12.3864 9.25958 12.5593 9.33943C12.736 9.41928 12.9357 9.49343 13.1585 9.56188C13.3851 9.62652 13.6156 9.70067 13.8499 9.78432C14.0842 9.86417 14.3127 9.95924 14.5355 10.0695C14.7621 10.1798 14.9618 10.3205 15.1347 10.4916C15.3114 10.6627 15.4535 10.8718 15.561 11.119C15.6686 11.3623 15.7224 11.657 15.7224 12.0031C15.7224 12.3871 15.6551 12.7464 15.5207 13.0811C15.3863 13.4157 15.1904 13.7085 14.933 13.9594C14.6795 14.2066 14.3646 14.4024 13.9881 14.5469C13.6156 14.6876 13.1911 14.758 12.7148 14.758C12.4536 14.758 12.1867 14.7313 11.914 14.6781C11.6451 14.6249 11.3839 14.5507 11.1304 14.4557C10.8769 14.3568 10.6388 14.2408 10.416 14.1077C10.1932 13.9746 9.99923 13.8263 9.83407 13.6628L10.4102 12.7617C10.4563 12.697 10.5158 12.6438 10.5888 12.602C10.6656 12.5563 10.7482 12.5335 10.8366 12.5335C10.9518 12.5335 11.067 12.5696 11.1823 12.6419C11.3013 12.7141 11.4339 12.794 11.5798 12.8814C11.7296 12.9689 11.9005 13.0487 12.0926 13.121C12.2846 13.1932 12.5113 13.2294 12.7725 13.2294C13.1258 13.2294 13.4005 13.1533 13.5964 13.0012C13.7922 12.8453 13.8902 12.6001 13.8902 12.2654C13.8902 12.0715 13.8364 11.9137 13.7289 11.792C13.6213 11.6703 13.4792 11.5696 13.3025 11.4897C13.1297 11.4099 12.9319 11.3395 12.7091 11.2787C12.4863 11.2179 12.2578 11.1513 12.0235 11.0791C11.7891 11.003 11.5606 10.9118 11.3378 10.8053C11.115 10.695 10.9153 10.5524 10.7386 10.3775C10.5658 10.1988 10.4256 9.97825 10.318 9.71588C10.2105 9.4497 10.1567 9.12269 10.1567 8.73484C10.1567 8.42304 10.2201 8.11884 10.3468 7.82225C10.4736 7.52565 10.6599 7.26138 10.9057 7.02943C11.1515 6.79748 11.4531 6.61306 11.8103 6.47617C12.1675 6.33548 12.5766 6.26514 13.0375 6.26514C13.2948 6.26514 13.5445 6.28605 13.7865 6.32788C14.0323 6.3659 14.2647 6.42484 14.4836 6.50469C14.7026 6.58074 14.9061 6.6739 15.0944 6.78417C15.2864 6.89064 15.4573 7.01232 15.6071 7.14921L15.1232 8.04469Z" fill="#68D391"/>
</svg>
