<svg width="107" height="88" viewBox="0 0 107 88" fill="none" xmlns="http://www.w3.org/2000/svg">
<path d="M76.5432 40.2197C77.3935 41.474 78.6131 42.4388 80.0364 42.9833C81.4597 43.5277 83.0178 43.6254 84.4991 43.263L96.781 40.2233L94.9921 33.11L82.7101 36.1497L77.6025 28.5707C76.5113 26.9521 74.8177 25.8264 72.8912 25.4393L58.6462 22.616C57.0526 22.2994 55.398 22.511 53.938 23.2181C52.478 23.9252 51.2937 25.0885 50.5681 26.5283L44.4272 38.687L51.0534 41.9687L57.1943 29.8063L64.4798 31.251L45.642 62.3333H29.2192V69.6667H45.642C48.2273 69.6667 50.6607 68.3027 51.9941 66.1063L59.0981 54.3877L78.2433 58.179L84.9695 78.1587L91.992 75.8377L85.2695 55.8617C84.8546 54.6353 84.1206 53.5387 83.1413 52.6826C82.162 51.8264 80.9721 51.2409 79.6915 50.985L68.4355 48.7593L74.9987 37.928L76.5432 40.2197Z" fill="#68D391"/>
<rect x="18.1077" y="22.8148" width="26.3385" height="3.25926" rx="1.62963" fill="#68D391"/>
<rect y="44" width="26.3385" height="3.25926" rx="1.62963" fill="#68D391"/>
<rect x="9.87695" y="32.5926" width="26.3385" height="3.25926" rx="1.62963" fill="#68D391"/>
<path d="M91.6846 17.9259C91.6846 23.0452 87.4912 27.2037 82.3077 27.2037C77.1242 27.2037 72.9308 23.0452 72.9308 17.9259C72.9308 12.8067 77.1242 8.64816 82.3077 8.64816C87.4912 8.64816 91.6846 12.8067 91.6846 17.9259Z" stroke="#68D391"/>
<path d="M81.1735 16.1928C81.1159 16.2841 81.0544 16.3525 80.9891 16.3982C80.9277 16.4438 80.847 16.4666 80.7471 16.4666C80.6588 16.4666 80.5628 16.44 80.4591 16.3868C80.3592 16.3297 80.244 16.267 80.1134 16.1985C79.9866 16.1301 79.8407 16.0692 79.6755 16.016C79.5103 15.959 79.3221 15.9305 79.1109 15.9305C78.746 15.9305 78.4733 16.0084 78.2927 16.1643C78.116 16.3164 78.0277 16.5236 78.0277 16.786C78.0277 16.9533 78.0815 17.0921 78.189 17.2024C78.2966 17.3127 78.4368 17.4077 78.6096 17.4876C78.7863 17.5674 78.986 17.6416 79.2088 17.71C79.4354 17.7747 79.6659 17.8488 79.9002 17.9325C80.1345 18.0123 80.363 18.1074 80.5858 18.2176C80.8124 18.3279 81.0122 18.4686 81.185 18.6397C81.3617 18.8108 81.5038 19.02 81.6114 19.2671C81.7189 19.5105 81.7727 19.8052 81.7727 20.1512C81.7727 20.5352 81.7055 20.8946 81.571 21.2292C81.4366 21.5638 81.2407 21.8566 80.9834 22.1076C80.7299 22.3547 80.4149 22.5506 80.0385 22.695C79.6659 22.8357 79.2415 22.9061 78.7652 22.9061C78.504 22.9061 78.237 22.8795 77.9643 22.8262C77.6954 22.773 77.4343 22.6988 77.1807 22.6038C76.9272 22.5049 76.6891 22.3889 76.4663 22.2559C76.2435 22.1228 76.0496 21.9745 75.8844 21.811L76.4606 20.9098C76.5066 20.8451 76.5662 20.7919 76.6392 20.7501C76.716 20.7045 76.7986 20.6816 76.8869 20.6816C77.0021 20.6816 77.1174 20.7178 77.2326 20.79C77.3517 20.8623 77.4842 20.9421 77.6301 21.0296C77.7799 21.117 77.9509 21.1969 78.1429 21.2691C78.335 21.3414 78.5616 21.3775 78.8228 21.3775C79.1762 21.3775 79.4508 21.3014 79.6467 21.1493C79.8426 20.9934 79.9405 20.7482 79.9405 20.4136C79.9405 20.2196 79.8867 20.0618 79.7792 19.9402C79.6717 19.8185 79.5295 19.7177 79.3528 19.6379C79.18 19.558 78.9822 19.4877 78.7594 19.4268C78.5366 19.366 78.3081 19.2994 78.0738 19.2272C77.8395 19.1511 77.6109 19.0599 77.3882 18.9534C77.1654 18.8431 76.9656 18.7006 76.789 18.5256C76.6161 18.3469 76.4759 18.1264 76.3684 17.864C76.2608 17.5978 76.207 17.2708 76.207 16.883C76.207 16.5712 76.2704 16.267 76.3972 15.9704C76.5239 15.6738 76.7102 15.4095 76.956 15.1776C77.2019 14.9456 77.5034 14.7612 77.8606 14.6243C78.2178 14.4836 78.6269 14.4133 79.0878 14.4133C79.3452 14.4133 79.5948 14.4342 79.8368 14.476C80.0826 14.514 80.315 14.573 80.534 14.6528C80.7529 14.7289 80.9565 14.822 81.1447 14.9323C81.3367 15.0388 81.5077 15.1605 81.6575 15.2973L81.1735 16.1928Z" fill="#68D391"/>
<path d="M87.5539 16.1928C87.4963 16.2841 87.4349 16.3525 87.3696 16.3982C87.3081 16.4438 87.2275 16.4666 87.1276 16.4666C87.0392 16.4666 86.9432 16.44 86.8395 16.3868C86.7396 16.3297 86.6244 16.267 86.4938 16.1985C86.3671 16.1301 86.2211 16.0692 86.0559 16.016C85.8908 15.959 85.7026 15.9305 85.4913 15.9305C85.1264 15.9305 84.8537 16.0084 84.6732 16.1643C84.4965 16.3164 84.4081 16.5236 84.4081 16.786C84.4081 16.9533 84.4619 17.0921 84.5695 17.2024C84.677 17.3127 84.8172 17.4077 84.9901 17.4876C85.1667 17.5674 85.3665 17.6416 85.5893 17.71C85.8159 17.7747 86.0463 17.8488 86.2806 17.9325C86.5149 18.0123 86.7435 18.1074 86.9663 18.2176C87.1929 18.3279 87.3926 18.4686 87.5655 18.6397C87.7422 18.8108 87.8843 19.02 87.9918 19.2671C88.0994 19.5105 88.1531 19.8052 88.1531 20.1512C88.1531 20.5352 88.0859 20.8946 87.9515 21.2292C87.8171 21.5638 87.6212 21.8566 87.3638 22.1076C87.1103 22.3547 86.7953 22.5506 86.4189 22.695C86.0463 22.8357 85.6219 22.9061 85.1456 22.9061C84.8844 22.9061 84.6175 22.8795 84.3448 22.8262C84.0759 22.773 83.8147 22.6988 83.5612 22.6038C83.3077 22.5049 83.0695 22.3889 82.8468 22.2559C82.624 22.1228 82.43 21.9745 82.2649 21.811L82.841 20.9098C82.8871 20.8451 82.9466 20.7919 83.0196 20.7501C83.0964 20.7045 83.179 20.6816 83.2674 20.6816C83.3826 20.6816 83.4978 20.7178 83.6131 20.79C83.7321 20.8623 83.8646 20.9421 84.0106 21.0296C84.1604 21.117 84.3313 21.1969 84.5234 21.2691C84.7154 21.3414 84.942 21.3775 85.2032 21.3775C85.5566 21.3775 85.8312 21.3014 86.0271 21.1493C86.223 20.9934 86.321 20.7482 86.321 20.4136C86.321 20.2196 86.2672 20.0618 86.1597 19.9402C86.0521 19.8185 85.91 19.7177 85.7333 19.6379C85.5605 19.558 85.3626 19.4877 85.1399 19.4268C84.9171 19.366 84.6885 19.2994 84.4542 19.2272C84.2199 19.1511 83.9914 19.0599 83.7686 18.9534C83.5458 18.8431 83.3461 18.7006 83.1694 18.5256C82.9966 18.3469 82.8564 18.1264 82.7488 17.864C82.6413 17.5978 82.5875 17.2708 82.5875 16.883C82.5875 16.5712 82.6509 16.267 82.7776 15.9704C82.9044 15.6738 83.0907 15.4095 83.3365 15.1776C83.5823 14.9456 83.8838 14.7612 84.2411 14.6243C84.5983 14.4836 85.0073 14.4133 85.4683 14.4133C85.7256 14.4133 85.9753 14.4342 86.2173 14.476C86.4631 14.514 86.6955 14.573 86.9144 14.6528C87.1334 14.7289 87.3369 14.822 87.5251 14.9323C87.7172 15.0388 87.8881 15.1605 88.0379 15.2973L87.5539 16.1928Z" fill="#68D391"/>
</svg>
